HIERARCHY
ROOT Hips
{
	OFFSET 0.000000 0.000000 0.000000
	CHANNELS 6 Xposition Yposition Zposition Zrotation Yrotation Xrotation 
	JOINT LHipJoint
	{
		OFFSET 0.000000 0.000000 0.000000
		CHANNELS 3 Zrotation Yrotation Xrotation
		JOINT LeftUpLeg
		{
			OFFSET 1.363060 -1.794630 0.839290
			CHANNELS 3 Zrotation Yrotation Xrotation
			JOINT LeftLeg
			{
				OFFSET 2.448110 -6.726130 0.000000
				CHANNELS 3 Zrotation Yrotation Xrotation
				JOINT LeftFoot
				{
					OFFSET 2.562200 -7.039590 0.000000
					CHANNELS 3 Zrotation Yrotation Xrotation
					JOINT LeftToeBase
					{
						OFFSET 0.157640 -0.433110 2.322550
						CHANNELS 3 Zrotation Yrotation Xrotation
						End Site
						{
							OFFSET 0.000000 0.000000 0.000000
						}
					}
				}
			}
		}
	}
	JOINT RHipJoint
	{
		OFFSET 0.000000 0.000000 0.000000
		CHANNELS 3 Zrotation Yrotation Xrotation
		JOINT RightUpLeg
		{
			OFFSET -1.305520 -1.794630 0.839290
			CHANNELS 3 Zrotation Yrotation Xrotation
			JOINT RightLeg
			{
				OFFSET -2.542530 -6.985550 0.000000
				CHANNELS 3 Zrotation Yrotation Xrotation
				JOINT RightFoot
				{
					OFFSET -2.568260 -7.056230 0.000000
					CHANNELS 3 Zrotation Yrotation Xrotation
					JOINT RightToeBase
					{
						OFFSET -0.164730 -0.452590 2.363150
						CHANNELS 3 Zrotation Yrotation Xrotation
						End Site
						{
							OFFSET 0.000000 0.000000 0.000000
						}
					}
				}
			}
		}
	}
	JOINT LowerBack
	{
		OFFSET 0.000000 0.000000 0.000000
		CHANNELS 3 Zrotation Yrotation Xrotation
		JOINT Spine
		{
			OFFSET 0.028270 2.035590 -0.193380
			CHANNELS 3 Zrotation Yrotation Xrotation
			JOINT Spine1
			{
				OFFSET 0.056720 2.048850 -0.042750
				CHANNELS 3 Zrotation Yrotation Xrotation
				JOINT Neck
				{
					OFFSET 0.000000 0.000000 0.000000
					CHANNELS 3 Zrotation Yrotation Xrotation
					JOINT Neck1
					{
						OFFSET -0.054170 1.746240 0.172020
						CHANNELS 3 Zrotation Yrotation Xrotation
						JOINT Head
						{
							OFFSET 0.104070 1.761360 -0.123970
							CHANNELS 3 Zrotation Yrotation Xrotation
							End Site
							{
								OFFSET 0.000000 0.000000 0.000000
							}
						}
					}
				}
				JOINT LeftShoulder
				{
					OFFSET 0.000000 0.000000 0.000000
					CHANNELS 3 Zrotation Yrotation Xrotation
					JOINT LeftArm
					{
						OFFSET 3.362410 1.200890 -0.311210
						CHANNELS 3 Zrotation Yrotation Xrotation
						JOINT LeftForeArm
						{
							OFFSET 4.983000 -0.000000 -0.000000
							CHANNELS 3 Zrotation Yrotation Xrotation
							JOINT LeftHand
							{
								OFFSET 3.483560 -0.000000 -0.000000
								CHANNELS 3 Zrotation Yrotation Xrotation
								JOINT LeftFingerBase
								{
									OFFSET 0.000000 0.000000 0.000000
									CHANNELS 3 Zrotation Yrotation Xrotation
									JOINT LeftHandIndex1
									{
										OFFSET 0.715260 -0.000000 -0.000000
										CHANNELS 3 Zrotation Yrotation Xrotation
										End Site
										{
											OFFSET 0.000000 0.000000 0.000000
										}
									}
								}
								JOINT LThumb
								{
									OFFSET 0.000000 0.000000 0.000000
									CHANNELS 3 Zrotation Yrotation Xrotation
									End Site
									{
										OFFSET 0.000000 0.000000 0.000000
									}
								}
							}
						}
					}
				}
				JOINT RightShoulder
				{
					OFFSET 0.000000 0.000000 0.000000
					CHANNELS 3 Zrotation Yrotation Xrotation
					JOINT RightArm
					{
						OFFSET -3.136600 1.374050 -0.404650
						CHANNELS 3 Zrotation Yrotation Xrotation
						JOINT RightForeArm
						{
							OFFSET -5.241900 -0.000000 -0.000000
							CHANNELS 3 Zrotation Yrotation Xrotation
							JOINT RightHand
							{
								OFFSET -3.444170 -0.000000 -0.000000
								CHANNELS 3 Zrotation Yrotation Xrotation
								JOINT RightFingerBase
								{
									OFFSET 0.000000 0.000000 0.000000
									CHANNELS 3 Zrotation Yrotation Xrotation
									JOINT RightHandIndex1
									{
										OFFSET -0.622530 -0.000000 -0.000000
										CHANNELS 3 Zrotation Yrotation Xrotation
										End Site
										{
											OFFSET 0.000000 0.000000 0.000000
										}
									}
								}
								JOINT RThumb
								{
									OFFSET 0.000000 0.000000 0.000000
									CHANNELS 3 Zrotation Yrotation Xrotation
									End Site
									{
										OFFSET 0.000000 0.000000 0.000000
									}
								}
							}
						}
					}
				}
			}
		}
	}
}
MOTION
Frames: 7
Frame Time: 0.008333
2.726776 17.470194 0.542507 5.925701 -55.947924 -1.526156 -9.837322 2.890588 5.059870 -4.661250 -0.168087 -8.143421 -2.660152 -1.098628 -2.219346 -0.699665 -4.239230 12.015572 -0.755800 -0.000000 -57.092201 11.787851 -3.850446 -1.801314 -4.463088 -32.780676 1.527589 1.495212 -0.089688 3.306971 -1.988155 -14.057487 10.709478 -4.872400 -0.000000 -74.084900 -2.683080 3.378650 -6.164000 -1.289740 3.497045 -3.976874 -3.719021 3.559248 -0.916591 -5.182096 -1.366218 -6.121622 -1.838807 -0.155818 0.439642 0.000000 0.000000 0.000000 8.260694 10.178310 -2.833656 -46.894100 -32.898101 6.262732 179.371757 -59.822133 179.985900 -0.594502 -5.108780 0.039839 0.212279 0.805773 0.000000 0.000000 0.000000 0.000000 0.000000 0.000000 0.000000 -7.960304 4.986008 4.483573 -9.719104 39.422879 -41.584397 -0.450995 -1.773720 -0.093964 -19.010565 1.314887 -0.281735 0.511018 -0.322520 -0.000000 0.000000 0.000000 0.000000 0.000000 0.000000 0.000000 
2.719617 17.480769 0.529993 5.775548 -56.337045 -1.509002 -9.854810 2.937209 5.060116 -4.491247 0.067668 -8.044268 -2.631240 -1.083875 -2.261488 -0.684992 -4.093925 12.205356 -0.727800 0.000000 -57.033800 11.770806 -3.885284 -1.739721 -4.288250 -32.663467 1.457273 1.497831 -0.093737 3.346080 -1.972482 -13.985550 10.845060 -4.878200 0.000000 -73.992200 -2.666846 3.333394 -6.255613 -1.288861 3.453948 -4.005518 -3.737560 3.525807 -0.972117 -4.673464 -1.894183 -6.106137 -1.810357 -0.154400 0.447997 0.000000 0.000000 0.000000 8.911558 9.916417 -2.895012 -47.435413 -31.482648 6.486851 179.343962 -59.045314 179.986101 -0.666110 -5.162837 0.044195 0.217864 0.805139 0.000000 0.000000 0.000000 0.000000 0.000000 0.000000 0.000000 -7.732193 4.536117 4.331381 -10.381816 41.883820 -42.990304 -0.622986 -2.095876 -0.098018 -19.790708 1.335971 -0.297233 0.520091 -0.323522 -0.000000 0.000000 0.000000 0.000000 0.000000 0.000000 0.000000 
2.709603 17.487512 0.521979 5.575476 -56.533179 -1.370317 -9.853016 2.981158 5.119692 -4.305993 -0.118658 -7.967870 -2.588841 -1.065944 -2.318681 -0.653192 -3.731253 12.287952 -0.630500 0.000001 -56.761000 11.752807 -3.896379 -1.711204 -4.112056 -32.527622 1.464747 1.493404 -0.093472 3.369812 -1.960361 -13.954924 10.987650 -4.902400 0.000001 -73.998700 -2.632292 3.190236 -6.362831 -1.229671 3.322357 -4.012174 -3.571809 3.399778 -0.955169 -4.565238 -3.007632 -6.210623 -1.588391 -0.137991 0.430057 0.000000 0.000000 0.000000 9.252813 9.787600 -2.910268 -47.596172 -30.039542 6.510122 179.301934 -58.173090 179.986885 -0.780763 -5.142739 0.050353 0.226265 0.800566 0.000000 0.000000 0.000000 0.000000 0.000000 0.000000 0.000000 -8.717491 3.576120 3.964202 -9.853099 45.153289 -48.493674 -1.072624 -2.469082 -0.097998 -20.193033 4.347442 -0.865120 0.498346 -0.392918 -0.000000 0.000000 0.000000 0.000000 0.000000 0.000000 0.000000 
2.699740 17.491186 0.517648 5.353117 -56.552827 -1.138182 -9.851506 3.010166 5.211951 -4.107265 -0.676698 -7.908616 -2.531277 -1.043151 -2.374770 -0.603869 -3.168141 12.270098 -0.469100 0.000000 -56.280500 11.718913 -3.883014 -1.721548 -3.926397 -32.319020 1.546505 1.477113 -0.094277 3.393628 -1.960197 -14.006505 11.135449 -4.959600 0.000000 -74.086000 -2.482891 2.991436 -6.456474 -1.111730 3.127832 -4.026641 -3.301562 3.208953 -0.986513 -4.845548 -4.468891 -6.289284 -1.172837 -0.108589 0.426000 0.000000 0.000000 0.000000 9.074855 9.674226 -2.784799 -47.035632 -28.659688 6.207964 179.311382 -57.230386 179.988081 -0.860107 -5.050927 0.053749 0.228649 0.796995 0.000000 0.000000 0.000000 0.000000 0.000000 0.000000 0.000000 -11.162263 2.441017 3.128067 -4.910384 47.746587 -53.737763 -1.862158 1.626984 -0.105659 -18.849352 7.406392 -1.341216 0.406015 -0.491638 -0.000000 0.000000 0.000000 0.000000 0.000000 0.000000 0.000000 
2.691734 17.492969 0.517018 5.081984 -56.459683 -0.813271 -9.847142 3.037029 5.339538 -3.881445 -1.523782 -7.877771 -2.459793 -1.016604 -2.416898 -0.537547 -2.438010 12.160383 -0.254800 0.000000 -55.614900 11.672665 -3.855289 -1.741247 -3.694955 -31.978294 1.674353 1.444231 -0.092452 3.421829 -1.976890 -14.178215 11.291293 -5.066600 0.000001 -74.212000 -2.269967 2.731938 -6.575409 -1.048733 2.854214 -4.063807 -3.332382 2.950209 -1.050266 -4.628597 -6.030658 -6.353175 -0.961772 -0.093673 0.421267 0.000000 0.000000 0.000000 9.020551 9.606514 -2.589739 -46.011397 -27.357779 5.731540 179.388240 -56.260692 179.990033 -0.930093 -4.896980 0.055573 0.224852 0.796946 0.000000 0.000000 0.000000 0.000000 0.000000 0.000000 0.000000 -12.264854 1.108231 2.174098 -0.019025 49.818743 -49.282265 -2.264383 7.667551 -0.111056 -16.904098 7.304756 -1.188571 0.328224 -0.528160 -0.000000 0.000000 0.000000 0.000000 0.000000 0.000000 0.000000 
2.684500 17.491514 0.519382 4.751843 -56.306821 -0.447002 -9.817035 3.081521 5.519600 -3.638326 -2.555117 -7.858621 -2.382684 -0.992487 -2.437187 -0.459410 -1.608487 11.950098 -0.008600 -0.000000 -54.839800 11.637256 -3.828104 -1.736542 -3.449175 -31.563886 1.825555 1.400499 -0.085494 3.489097 -2.000229 -14.401103 11.403218 -5.185800 0.000000 -74.369101 -2.168224 2.408448 -6.770291 -1.033245 2.517375 -4.140568 -3.480606 2.624197 -1.147476 -3.952639 -6.902162 -6.287185 -0.968220 -0.096063 0.446501 0.000000 0.000000 0.000000 9.369954 9.477789 -2.350681 -45.084501 -25.936467 5.299756 179.505338 -55.336555 179.992945 -1.046904 -4.695177 0.059015 0.220084 0.798256 0.000000 0.000000 0.000000 0.000000 0.000000 0.000000 0.000000 -11.917315 0.307184 1.397036 3.623657 49.794914 -38.803353 -2.355742 16.151242 -0.120376 -16.064496 4.291117 -0.690556 0.286752 -0.512772 -0.000000 0.000000 0.000000 0.000000 0.000000 0.000000 0.000000 
2.678664 17.486827 0.523236 4.412645 -56.152928 -0.086197 -9.774419 3.133704 5.724826 -3.392372 -3.658248 -7.848636 -2.302610 -0.969159 -2.424621 -0.372282 -0.740081 11.651881 0.247400 0.000000 -54.020701 11.604849 -3.794993 -1.715841 -3.202880 -31.085123 1.980996 1.348469 -0.076247 3.607299 -2.030369 -14.659797 11.442654 -5.304400 0.000000 -74.530100 -2.119284 2.038772 -7.003178 -1.002391 2.140842 -4.234389 -3.538667 2.247341 -1.248609 -3.291691 -7.054304 -6.109473 -1.053628 -0.105829 0.499741 0.000000 0.000000 0.000000 9.725666 9.308489 -2.067403 -44.135082 -24.417616 4.816577 179.640858 -54.477384 179.995936 -1.155863 -4.469833 0.061282 0.214078 0.798703 0.000000 0.000000 0.000000 0.000000 0.000000 0.000000 0.000000 -11.110072 0.115491 0.848562 5.615228 48.419045 -30.894727 -2.268317 25.511411 -0.126147 -15.435373 1.685738 -0.300991 0.243043 -0.500743 -0.000000 0.000000 0.000000 0.000000 0.000000 0.000000 0.000000 
